<?xml version="1.0" encoding="UTF-8"?>
<!DOCTYPE svg PUBLIC "-//W3C//DTD SVG 1.1//EN" "http://www.w3.org/Graphics/SVG/1.1/DTD/svg11.dtd">
<!-- Creator: CorelDRAW X8 -->
<svg xmlns="http://www.w3.org/2000/svg" xml:space="preserve" width="250px" height="250px" version="1.1" style="shape-rendering:geometricPrecision; text-rendering:geometricPrecision; image-rendering:optimizeQuality; fill-rule:evenodd; clip-rule:evenodd"
viewBox="0 0 250 250"
 xmlns:xlink="http://www.w3.org/1999/xlink">
 <defs>
  <style type="text/css">
   <![CDATA[
    .fil2 {fill:#109618}
    .fil6 {fill:#292827}
    .fil5 {fill:#4DB53C}
    .fil4 {fill:#666666}
    .fil1 {fill:#DC3912}
    .fil0 {fill:#F0F0F0}
    .fil3 {fill:#FF9900}
   ]]>
  </style>
 </defs>
 <g id="Слой_x0020_1">
  <metadata id="CorelCorpID_0Corel-Layer"/>
  <path class="fil0" d="M111 214c2,-1 3,-1 4,1 -1,2 -2,2 -4,1l0 -2zm44 0c-1,-7 7,-8 8,-3 1,7 -7,7 -8,3zm-3 -7c-3,4 -10,-1 -7,-6 4,-5 10,1 7,6zm-20 7c1,-2 3,1 5,-2 0,-2 -2,-2 -3,-4l3 -3c-1,-2 -8,-2 -3,-4 3,-2 7,0 6,5 -1,4 3,5 0,8 -1,3 -7,4 -8,0zm-14 -11c1,-4 9,-3 9,1 2,6 -5,6 -5,9 2,1 4,0 5,2 -2,3 -7,2 -9,1 -2,-5 3,-6 5,-9 4,-4 -4,-3 -5,-4zm-17 3c2,1 7,-1 7,5 0,4 -4,7 -8,5 -8,-5 1,-21 7,-15 -2,3 -6,1 -6,5zm-16 -3c-1,-3 4,-3 6,-2 4,2 1,5 1,7 0,2 3,5 0,7 -2,2 -7,3 -8,0 2,-3 4,0 5,-3 0,-3 -2,-2 -3,-4l3 -3c-1,-3 -2,-1 -4,-2zm63 13c0,-1 9,-17 12,-16 0,1 -9,17 -12,16zm-3 -22l3 0 1 2c-2,1 -2,1 -4,0l0 -2zm0 -8l3 -1 1 3c-2,1 -2,1 -4,0l0 -2zm-26 11c-3,-2 -2,-10 -2,-13 0,-3 0,-4 3,-4 2,-1 5,0 7,1 3,1 3,7 -1,9 -2,1 -4,0 -5,2 -1,2 1,4 -2,5zm-17 -11c0,2 0,8 -2,10 -3,-1 -3,-22 4,-14 1,1 4,8 5,7 2,-1 -1,-7 3,-8 2,1 2,15 -1,15 -3,0 -7,-8 -9,-10zm34 -3c0,5 7,3 6,10 -1,5 -9,5 -10,2 2,-3 4,0 6,-3 0,-3 -7,-3 -6,-8 0,-4 7,-6 9,-3 -1,2 -4,2 -5,2zm35 -3c-2,-8 5,-11 6,-6 2,8 -5,10 -6,6zm-8 -1c-2,-8 5,-10 6,-4 2,8 -5,9 -6,4zm-72 0c-1,-9 6,-9 7,-4 1,8 -6,9 -7,4zm-6 3c-2,-3 -3,-7 0,-10 7,-1 7,11 0,10zm-15 -3c2,-2 2,-2 4,-1l-4 1zm6 -4l3 -3c1,2 1,8 0,10 -1,-2 0,-5 -1,-7l-2 0zm-3 -78c-3,5 -9,-1 -6,-7 2,-5 9,1 6,7zm119 -8c4,3 2,12 -3,9 -2,-1 -4,-11 3,-9zm-11 1c2,2 6,2 5,6 -1,3 -6,3 -6,0 0,0 7,3 4,-3l-4 0c-1,-5 3,-5 5,-4l-4 1zm-120 0c1,2 5,2 4,6 -1,3 -6,3 -6,0 2,0 1,2 4,1 3,-5 -3,-4 -4,-4 0,-4 2,-6 5,-4l-3 1zm12 -28c-17,17 -27,35 -28,59 0,13 3,25 8,36 4,8 15,18 12,25 -2,3 -13,14 -15,15 -30,-31 -39,-74 -23,-114l0 -1c5,-12 18,-32 29,-39 38,-33 98,-34 136,0 41,38 50,98 15,143 -8,10 -19,6 -22,-4 -3,-9 8,-22 12,-31 11,-29 4,-53 -12,-78 -9,13 -29,29 -42,41 -4,4 -38,42 -42,38 -3,-3 34,-38 38,-42 13,-12 28,-33 42,-42l-6 -6c-35,-25 -68,-24 -102,0zm39 -47c-23,2 -55,20 -70,38 -19,22 -27,51 -24,80 5,60 56,100 116,95 60,-5 100,-56 95,-116 -2,-28 -14,-53 -36,-71 -20,-17 -55,-29 -81,-26z"/>
  <path class="fil1" d="M27 82c3,1 18,6 19,8 -3,1 -16,-6 -19,-7 -16,40 -7,83 23,114 1,-3 4,-6 7,-8 2,-2 5,-7 8,-7 3,-7 -8,-17 -12,-25 -5,-11 -8,-23 -8,-36 1,-24 11,-42 28,-59l-17 -19c-11,7 -24,27 -29,39z"/>
  <path class="fil2" d="M175 62l6 6 11 -7 1 0 -8 12c16,25 23,49 12,78 -4,9 -15,22 -12,31 3,10 14,14 22,4 35,-45 26,-105 -15,-143l-17 19z"/>
  <path class="fil3" d="M56 43l17 19c34,-24 67,-25 102,0l17 -19c-38,-34 -98,-33 -136,0z"/>
  <path class="fil4" d="M181 68c-14,9 -29,30 -42,42 -4,4 -41,39 -38,42 4,4 38,-34 42,-38 13,-12 33,-28 42,-41l8 -12 -1 0 -11 7z"/>
  <path class="fil5" d="M102 186c2,2 6,10 9,10 3,0 3,-14 1,-15 -4,1 -1,7 -3,8 -1,1 -4,-6 -5,-7 -7,-8 -7,13 -4,14 2,-2 2,-8 2,-10z"/>
  <path class="fil5" d="M121 183c2,-1 2,-1 4,0 1,4 0,6 -4,5l0 -5zm-2 14c3,-1 1,-3 2,-5 1,-2 3,-1 5,-2 4,-2 4,-8 1,-9 -2,-1 -5,-2 -7,-1 -3,0 -3,1 -3,4 0,3 -1,11 2,13z"/>
  <path class="fil5" d="M104 209c1,2 1,3 0,5l-3 -1c-1,-2 -1,-1 0,-4l3 0zm-3 -3c0,-4 4,-2 6,-5 -6,-6 -15,10 -7,15 4,2 8,-1 8,-5 0,-6 -5,-4 -7,-5z"/>
  <path class="fil5" d="M136 183c1,0 4,0 5,-2 -2,-3 -9,-1 -9,3 -1,5 6,5 6,8 -2,3 -4,0 -6,3 1,3 9,3 10,-2 1,-7 -6,-5 -6,-10z"/>
  <path class="fil5" d="M118 203c1,1 9,0 5,4 -2,3 -7,4 -5,9 2,1 7,2 9,-1 -1,-2 -3,-1 -5,-2 0,-3 7,-3 5,-9 0,-4 -8,-5 -9,-1z"/>
  <path class="fil5" d="M140 206c1,-5 -3,-7 -6,-5 -5,2 2,2 3,4l-3 3c1,2 3,2 3,4 -2,3 -4,0 -5,2 1,4 7,3 8,0 3,-3 -1,-4 0,-8z"/>
  <path class="fil5" d="M84 215c1,3 6,2 8,0 3,-2 0,-5 0,-7 0,-2 3,-5 -1,-7 -2,-1 -7,-1 -6,2 2,1 3,-1 4,2l-3 3c1,2 3,1 3,4 -1,3 -3,0 -5,3z"/>
  <path class="fil5" d="M148 202l1 0c2,1 2,2 0,4l-1 0c-1,-2 -1,-3 0,-4zm4 5c3,-5 -3,-11 -7,-6 -3,5 4,10 7,6z"/>
  <path class="fil5" d="M159 210c2,1 2,3 0,5 -2,-1 -2,-4 0,-5zm-4 4c1,4 9,4 8,-3 -1,-5 -9,-4 -8,3z"/>
  <path class="fil5" d="M148 216c3,1 12,-15 12,-16 -3,-1 -12,15 -12,16z"/>
  <path class="fil6" d="M69 97c-2,-2 -2,-7 1,-8 3,2 3,8 -1,8zm4 0c3,-6 -4,-12 -6,-7 -3,6 3,12 6,7z"/>
  <path class="fil6" d="M95 173c2,2 3,7 -1,8 -2,-2 -2,-7 1,-8zm-4 6c1,5 8,4 7,-4 -1,-5 -8,-5 -7,4z"/>
  <path class="fil6" d="M166 181c-3,-2 -2,-6 -1,-8 4,0 4,7 1,8zm-3 -2c1,5 8,4 6,-4 -1,-6 -8,-4 -6,4z"/>
  <path class="fil6" d="M175 173c2,2 2,6 0,8 -4,-1 -3,-4 -2,-7l2 -1zm-4 7c1,4 8,2 6,-6 -1,-5 -8,-2 -6,6z"/>
  <path class="fil6" d="M190 89c4,1 3,6 1,8 -4,0 -3,-6 -1,-8zm2 0c-7,-2 -5,8 -3,9 5,3 7,-6 3,-9z"/>
  <path class="fil6" d="M87 181c-4,-1 -3,-8 0,-8 2,2 2,6 0,8zm-2 1c7,1 7,-11 0,-10 -3,3 -2,7 0,10z"/>
  <path class="fil6" d="M27 82l0 1c3,1 16,8 19,7 -1,-2 -16,-7 -19,-8z"/>
  <path class="fil6" d="M50 197c2,-1 13,-12 15,-15 -3,0 -6,5 -8,7 -3,2 -6,5 -7,8z"/>
  <path class="fil0" d="M190 89c-2,2 -3,8 1,8 2,-2 3,-7 -1,-8z"/>
  <path class="fil0" d="M173 174c-1,3 -2,6 2,7 2,-2 2,-6 0,-8l-2 1z"/>
  <path class="fil6" d="M185 89c-2,-1 -6,-1 -5,4l4 0c3,6 -4,3 -4,3 0,3 5,3 6,0 1,-4 -3,-4 -5,-6l4 -1z"/>
  <path class="fil0" d="M87 181c2,-2 2,-6 0,-8 -3,0 -4,7 0,8z"/>
  <path class="fil0" d="M95 173c-3,1 -3,6 -1,8 4,-1 3,-6 1,-8z"/>
  <path class="fil0" d="M69 97c4,0 4,-6 1,-8 -3,1 -3,6 -1,8z"/>
  <path class="fil0" d="M166 181c3,-1 3,-8 -1,-8 -1,2 -2,6 1,8z"/>
  <path class="fil6" d="M64 89c-3,-2 -5,0 -5,4 1,0 7,-1 4,4 -3,1 -2,-1 -4,-1 0,3 5,3 6,0 1,-4 -3,-4 -4,-6l3 -1z"/>
  <path class="fil0" d="M121 188c4,1 5,-1 4,-5 -2,-1 -2,-1 -4,0l0 5z"/>
  <path class="fil0" d="M101 209c-1,3 -1,2 0,4l3 1c1,-2 1,-3 0,-5l-3 0z"/>
  <path class="fil6" d="M78 175c1,2 0,5 1,7 1,-2 1,-8 0,-10l-3 3 2 0z"/>
  <path class="fil0" d="M148 202c-1,1 -1,2 0,4l1 0c2,-2 2,-3 0,-4l-1 0z"/>
  <path class="fil0" d="M159 210c-2,1 -2,4 0,5 2,-2 2,-4 0,-5z"/>
  <path class="fil5" d="M111 216c2,1 3,1 4,-1 -1,-2 -2,-2 -4,-1l0 2z"/>
  <path class="fil5" d="M145 188c2,1 2,1 4,0l-1 -3 -3 1 0 2z"/>
  <path class="fil5" d="M145 196c2,1 2,1 4,0l-1 -2 -3 0 0 2z"/>
  <path class="fil6" d="M70 179l4 -1c-2,-1 -2,-1 -4,1z"/>
 </g>
</svg>
